<svg id="Éléments_décoratifs_2" data-name="Éléments décoratifs 2" xmlns="http://www.w3.org/2000/svg" width="445.566" height="450.924" viewBox="0 0 445.566 450.924">
  <defs>
    <style>
      .cls-1 {
        fill: #e6e6e6;
      }

      .cls-2 {
        fill: #009fe3;
      }

      .cls-3 {
        fill: #f20893;
      }
    </style>
  </defs>
  <circle id="Ellipse_2" data-name="Ellipse 2" class="cls-1" cx="9.369" cy="9.369" r="9.369"/>
  <circle id="Ellipse_3" data-name="Ellipse 3" class="cls-1" cx="9.369" cy="9.369" r="9.369" transform="translate(47.425)"/>
  <circle id="Ellipse_4" data-name="Ellipse 4" class="cls-1" cx="9.369" cy="9.369" r="9.369" transform="translate(94.851)"/>
  <circle id="Ellipse_5" data-name="Ellipse 5" class="cls-1" cx="9.369" cy="9.369" r="9.369" transform="translate(142.276)"/>
  <circle id="Ellipse_6" data-name="Ellipse 6" class="cls-1" cx="9.369" cy="9.369" r="9.369" transform="translate(189.702)"/>
  <circle id="Ellipse_7" data-name="Ellipse 7" class="cls-1" cx="9.369" cy="9.369" r="9.369" transform="translate(237.127)"/>
  <circle id="Ellipse_8" data-name="Ellipse 8" class="cls-1" cx="9.369" cy="9.369" r="9.369" transform="translate(284.552)"/>
  <circle id="Ellipse_9" data-name="Ellipse 9" class="cls-1" cx="9.369" cy="9.369" r="9.369" transform="translate(331.978)"/>
  <circle id="Ellipse_10" data-name="Ellipse 10" class="cls-1" cx="9.369" cy="9.369" r="9.369" transform="translate(379.403)"/>
  <circle id="Ellipse_11" data-name="Ellipse 11" class="cls-1" cx="9.369" cy="9.369" r="9.369" transform="translate(426.828)"/>
  <circle id="Ellipse_12" data-name="Ellipse 12" class="cls-1" cx="9.369" cy="9.369" r="9.369" transform="translate(0 48.021)"/>
  <circle id="Ellipse_13" data-name="Ellipse 13" class="cls-1" cx="9.369" cy="9.369" r="9.369" transform="translate(47.425 48.021)"/>
  <circle id="Ellipse_14" data-name="Ellipse 14" class="cls-1" cx="9.369" cy="9.369" r="9.369" transform="translate(94.851 48.021)"/>
  <circle id="Ellipse_15" data-name="Ellipse 15" class="cls-2" cx="9.369" cy="9.369" r="9.369" transform="translate(142.276 48.021)"/>
  <circle id="Ellipse_16" data-name="Ellipse 16" class="cls-1" cx="9.369" cy="9.369" r="9.369" transform="translate(189.702 48.021)"/>
  <circle id="Ellipse_17" data-name="Ellipse 17" class="cls-1" cx="9.369" cy="9.369" r="9.369" transform="translate(237.127 48.021)"/>
  <circle id="Ellipse_18" data-name="Ellipse 18" class="cls-1" cx="9.369" cy="9.369" r="9.369" transform="translate(284.552 48.021)"/>
  <circle id="Ellipse_19" data-name="Ellipse 19" class="cls-1" cx="9.369" cy="9.369" r="9.369" transform="translate(331.978 48.021)"/>
  <circle id="Ellipse_20" data-name="Ellipse 20" class="cls-1" cx="9.369" cy="9.369" r="9.369" transform="translate(379.403 48.021)"/>
  <circle id="Ellipse_21" data-name="Ellipse 21" class="cls-1" cx="9.369" cy="9.369" r="9.369" transform="translate(426.828 48.021)"/>
  <circle id="Ellipse_22" data-name="Ellipse 22" class="cls-1" cx="9.369" cy="9.369" r="9.369" transform="translate(0 96.041)"/>
  <circle id="Ellipse_23" data-name="Ellipse 23" class="cls-1" cx="9.369" cy="9.369" r="9.369" transform="translate(47.425 96.041)"/>
  <circle id="Ellipse_24" data-name="Ellipse 24" class="cls-1" cx="9.369" cy="9.369" r="9.369" transform="translate(94.851 96.041)"/>
  <circle id="Ellipse_25" data-name="Ellipse 25" class="cls-1" cx="9.369" cy="9.369" r="9.369" transform="translate(142.276 96.041)"/>
  <circle id="Ellipse_26" data-name="Ellipse 26" class="cls-1" cx="9.369" cy="9.369" r="9.369" transform="translate(189.702 96.041)"/>
  <circle id="Ellipse_27" data-name="Ellipse 27" class="cls-1" cx="9.369" cy="9.369" r="9.369" transform="translate(237.127 96.041)"/>
  <circle id="Ellipse_28" data-name="Ellipse 28" class="cls-1" cx="9.369" cy="9.369" r="9.369" transform="translate(284.552 96.041)"/>
  <circle id="Ellipse_29" data-name="Ellipse 29" class="cls-1" cx="9.369" cy="9.369" r="9.369" transform="translate(331.978 96.041)"/>
  <circle id="Ellipse_30" data-name="Ellipse 30" class="cls-1" cx="9.369" cy="9.369" r="9.369" transform="translate(379.403 96.041)"/>
  <circle id="Ellipse_31" data-name="Ellipse 31" class="cls-1" cx="9.369" cy="9.369" r="9.369" transform="translate(426.828 96.041)"/>
  <circle id="Ellipse_32" data-name="Ellipse 32" class="cls-1" cx="9.369" cy="9.369" r="9.369" transform="translate(0 144.062)"/>
  <circle id="Ellipse_33" data-name="Ellipse 33" class="cls-1" cx="9.369" cy="9.369" r="9.369" transform="translate(47.425 144.062)"/>
  <circle id="Ellipse_34" data-name="Ellipse 34" class="cls-1" cx="9.369" cy="9.369" r="9.369" transform="translate(94.851 144.062)"/>
  <circle id="Ellipse_35" data-name="Ellipse 35" class="cls-1" cx="9.369" cy="9.369" r="9.369" transform="translate(142.276 144.062)"/>
  <circle id="Ellipse_36" data-name="Ellipse 36" class="cls-1" cx="9.369" cy="9.369" r="9.369" transform="translate(189.702 144.062)"/>
  <circle id="Ellipse_37" data-name="Ellipse 37" class="cls-1" cx="9.369" cy="9.369" r="9.369" transform="translate(237.127 144.062)"/>
  <circle id="Ellipse_38" data-name="Ellipse 38" class="cls-1" cx="9.369" cy="9.369" r="9.369" transform="translate(284.552 144.062)"/>
  <circle id="Ellipse_39" data-name="Ellipse 39" class="cls-1" cx="9.369" cy="9.369" r="9.369" transform="translate(331.978 144.062)"/>
  <circle id="Ellipse_40" data-name="Ellipse 40" class="cls-1" cx="9.369" cy="9.369" r="9.369" transform="translate(379.403 144.062)"/>
  <circle id="Ellipse_41" data-name="Ellipse 41" class="cls-1" cx="9.369" cy="9.369" r="9.369" transform="translate(426.828 144.062)"/>
  <circle id="Ellipse_42" data-name="Ellipse 42" class="cls-1" cx="9.369" cy="9.369" r="9.369" transform="translate(0 192.083)"/>
  <circle id="Ellipse_43" data-name="Ellipse 43" class="cls-3" cx="9.369" cy="9.369" r="9.369" transform="translate(47.425 192.083)"/>
  <circle id="Ellipse_44" data-name="Ellipse 44" class="cls-1" cx="9.369" cy="9.369" r="9.369" transform="translate(94.851 192.083)"/>
  <circle id="Ellipse_45" data-name="Ellipse 45" class="cls-1" cx="9.369" cy="9.369" r="9.369" transform="translate(142.276 192.083)"/>
  <circle id="Ellipse_46" data-name="Ellipse 46" class="cls-1" cx="9.369" cy="9.369" r="9.369" transform="translate(189.702 192.083)"/>
  <circle id="Ellipse_47" data-name="Ellipse 47" class="cls-1" cx="9.369" cy="9.369" r="9.369" transform="translate(237.127 192.083)"/>
  <circle id="Ellipse_48" data-name="Ellipse 48" class="cls-1" cx="9.369" cy="9.369" r="9.369" transform="translate(284.552 192.083)"/>
  <circle id="Ellipse_49" data-name="Ellipse 49" class="cls-1" cx="9.369" cy="9.369" r="9.369" transform="translate(331.978 192.083)"/>
  <circle id="Ellipse_50" data-name="Ellipse 50" class="cls-1" cx="9.369" cy="9.369" r="9.369" transform="translate(379.403 192.083)"/>
  <circle id="Ellipse_51" data-name="Ellipse 51" class="cls-1" cx="9.369" cy="9.369" r="9.369" transform="translate(426.828 192.083)"/>
  <circle id="Ellipse_52" data-name="Ellipse 52" class="cls-1" cx="9.369" cy="9.369" r="9.369" transform="translate(0 240.104)"/>
  <circle id="Ellipse_53" data-name="Ellipse 53" class="cls-1" cx="9.369" cy="9.369" r="9.369" transform="translate(47.425 240.104)"/>
  <circle id="Ellipse_54" data-name="Ellipse 54" class="cls-1" cx="9.369" cy="9.369" r="9.369" transform="translate(94.851 240.104)"/>
  <circle id="Ellipse_55" data-name="Ellipse 55" class="cls-1" cx="9.369" cy="9.369" r="9.369" transform="translate(142.276 240.104)"/>
  <circle id="Ellipse_56" data-name="Ellipse 56" class="cls-1" cx="9.369" cy="9.369" r="9.369" transform="translate(189.702 240.104)"/>
  <circle id="Ellipse_57" data-name="Ellipse 57" class="cls-1" cx="9.369" cy="9.369" r="9.369" transform="translate(237.127 240.104)"/>
  <circle id="Ellipse_58" data-name="Ellipse 58" class="cls-1" cx="9.369" cy="9.369" r="9.369" transform="translate(284.552 240.104)"/>
  <circle id="Ellipse_59" data-name="Ellipse 59" class="cls-1" cx="9.369" cy="9.369" r="9.369" transform="translate(331.978 240.104)"/>
  <circle id="Ellipse_60" data-name="Ellipse 60" class="cls-1" cx="9.369" cy="9.369" r="9.369" transform="translate(379.403 240.104)"/>
  <circle id="Ellipse_61" data-name="Ellipse 61" class="cls-1" cx="9.369" cy="9.369" r="9.369" transform="translate(426.828 240.104)"/>
  <circle id="Ellipse_62" data-name="Ellipse 62" class="cls-1" cx="9.369" cy="9.369" r="9.369" transform="translate(0 288.124)"/>
  <circle id="Ellipse_63" data-name="Ellipse 63" class="cls-1" cx="9.369" cy="9.369" r="9.369" transform="translate(47.425 288.124)"/>
  <circle id="Ellipse_64" data-name="Ellipse 64" cx="9.369" cy="9.369" r="9.369" transform="translate(94.851 288.124)"/>
  <circle id="Ellipse_65" data-name="Ellipse 65" class="cls-1" cx="9.369" cy="9.369" r="9.369" transform="translate(142.276 288.124)"/>
  <circle id="Ellipse_66" data-name="Ellipse 66" class="cls-1" cx="9.369" cy="9.369" r="9.369" transform="translate(189.702 288.124)"/>
  <circle id="Ellipse_67" data-name="Ellipse 67" class="cls-1" cx="9.369" cy="9.369" r="9.369" transform="translate(237.127 288.124)"/>
  <circle id="Ellipse_68" data-name="Ellipse 68" class="cls-1" cx="9.369" cy="9.369" r="9.369" transform="translate(284.552 288.124)"/>
  <circle id="Ellipse_69" data-name="Ellipse 69" class="cls-1" cx="9.369" cy="9.369" r="9.369" transform="translate(331.978 288.124)"/>
  <circle id="Ellipse_70" data-name="Ellipse 70" class="cls-1" cx="9.369" cy="9.369" r="9.369" transform="translate(379.403 288.124)"/>
  <circle id="Ellipse_71" data-name="Ellipse 71" class="cls-1" cx="9.369" cy="9.369" r="9.369" transform="translate(426.828 288.124)"/>
  <circle id="Ellipse_72" data-name="Ellipse 72" class="cls-1" cx="9.369" cy="9.369" r="9.369" transform="translate(0 336.145)"/>
  <circle id="Ellipse_73" data-name="Ellipse 73" class="cls-1" cx="9.369" cy="9.369" r="9.369" transform="translate(47.425 336.145)"/>
  <circle id="Ellipse_74" data-name="Ellipse 74" class="cls-1" cx="9.369" cy="9.369" r="9.369" transform="translate(94.851 336.145)"/>
  <circle id="Ellipse_75" data-name="Ellipse 75" class="cls-1" cx="9.369" cy="9.369" r="9.369" transform="translate(142.276 336.145)"/>
  <circle id="Ellipse_76" data-name="Ellipse 76" class="cls-1" cx="9.369" cy="9.369" r="9.369" transform="translate(189.702 336.145)"/>
  <circle id="Ellipse_77" data-name="Ellipse 77" class="cls-1" cx="9.369" cy="9.369" r="9.369" transform="translate(237.127 336.145)"/>
  <circle id="Ellipse_78" data-name="Ellipse 78" class="cls-1" cx="9.369" cy="9.369" r="9.369" transform="translate(284.552 336.145)"/>
  <circle id="Ellipse_79" data-name="Ellipse 79" class="cls-1" cx="9.369" cy="9.369" r="9.369" transform="translate(331.978 336.145)"/>
  <circle id="Ellipse_80" data-name="Ellipse 80" class="cls-1" cx="9.369" cy="9.369" r="9.369" transform="translate(379.403 336.145)"/>
  <circle id="Ellipse_81" data-name="Ellipse 81" class="cls-1" cx="9.369" cy="9.369" r="9.369" transform="translate(426.828 336.145)"/>
  <circle id="Ellipse_82" data-name="Ellipse 82" class="cls-1" cx="9.369" cy="9.369" r="9.369" transform="translate(0 384.166)"/>
  <circle id="Ellipse_83" data-name="Ellipse 83" class="cls-1" cx="9.369" cy="9.369" r="9.369" transform="translate(47.425 384.166)"/>
  <circle id="Ellipse_84" data-name="Ellipse 84" class="cls-1" cx="9.369" cy="9.369" r="9.369" transform="translate(94.851 384.166)"/>
  <circle id="Ellipse_85" data-name="Ellipse 85" class="cls-1" cx="9.369" cy="9.369" r="9.369" transform="translate(142.276 384.166)"/>
  <circle id="Ellipse_86" data-name="Ellipse 86" class="cls-1" cx="9.369" cy="9.369" r="9.369" transform="translate(189.702 384.166)"/>
  <circle id="Ellipse_87" data-name="Ellipse 87" class="cls-1" cx="9.369" cy="9.369" r="9.369" transform="translate(237.127 384.166)"/>
  <circle id="Ellipse_88" data-name="Ellipse 88" class="cls-1" cx="9.369" cy="9.369" r="9.369" transform="translate(284.552 384.166)"/>
  <circle id="Ellipse_89" data-name="Ellipse 89" class="cls-1" cx="9.369" cy="9.369" r="9.369" transform="translate(331.978 384.166)"/>
  <circle id="Ellipse_90" data-name="Ellipse 90" class="cls-1" cx="9.369" cy="9.369" r="9.369" transform="translate(379.403 384.166)"/>
  <circle id="Ellipse_91" data-name="Ellipse 91" class="cls-1" cx="9.369" cy="9.369" r="9.369" transform="translate(426.828 384.166)"/>
  <circle id="Ellipse_92" data-name="Ellipse 92" class="cls-1" cx="9.369" cy="9.369" r="9.369" transform="translate(0 432.186)"/>
  <circle id="Ellipse_93" data-name="Ellipse 93" class="cls-1" cx="9.369" cy="9.369" r="9.369" transform="translate(47.425 432.186)"/>
  <circle id="Ellipse_94" data-name="Ellipse 94" class="cls-1" cx="9.369" cy="9.369" r="9.369" transform="translate(94.851 432.186)"/>
  <circle id="Ellipse_95" data-name="Ellipse 95" class="cls-1" cx="9.369" cy="9.369" r="9.369" transform="translate(142.276 432.186)"/>
  <circle id="Ellipse_96" data-name="Ellipse 96" class="cls-1" cx="9.369" cy="9.369" r="9.369" transform="translate(189.702 432.186)"/>
  <circle id="Ellipse_97" data-name="Ellipse 97" class="cls-1" cx="9.369" cy="9.369" r="9.369" transform="translate(237.127 432.186)"/>
  <circle id="Ellipse_98" data-name="Ellipse 98" class="cls-1" cx="9.369" cy="9.369" r="9.369" transform="translate(284.552 432.186)"/>
  <circle id="Ellipse_99" data-name="Ellipse 99" class="cls-1" cx="9.369" cy="9.369" r="9.369" transform="translate(331.978 432.186)"/>
  <circle id="Ellipse_100" data-name="Ellipse 100" class="cls-1" cx="9.369" cy="9.369" r="9.369" transform="translate(379.403 432.186)"/>
  <circle id="Ellipse_101" data-name="Ellipse 101" class="cls-1" cx="9.369" cy="9.369" r="9.369" transform="translate(426.828 432.186)"/>
</svg>
