<svg xmlns="http://www.w3.org/2000/svg" width="170.895" height="204.451" viewBox="0 0 170.895 204.451">
  <defs>
    <style>
      .cls-1 {
        fill: none;
      }

      .cls-1, .cls-2 {
        stroke: #707070;
        stroke-miterlimit: 10;
        stroke-width: 3px;
      }

      .cls-2 {
        fill: #fff;
      }
    </style>
  </defs>
  <g id="Calque_2" data-name="Calque 2" transform="translate(2.622 2.614)">
    <g id="Calque_1" data-name="Calque 1" transform="translate(-0.825 -0.817)">
      <rect id="Rectangle_426" data-name="Rectangle 426" class="cls-1" width="93.833" height="159.004" rx="11.74" transform="translate(0 20.948) rotate(-12.9)"/>
      <rect id="Rectangle_427" data-name="Rectangle 427" class="cls-1" width="76.043" height="128.859" rx="11.74" transform="translate(11.732 32.334) rotate(-12.9)"/>
      <rect id="Rectangle_428" data-name="Rectangle 428" class="cls-2" width="93.833" height="159.004" rx="11.74" transform="matrix(0.96, 0.28, -0.28, 0.96, 77.172, 21.853)"/>
      <path id="Tracé_1370" data-name="Tracé 1370" class="cls-2" d="M15.107,51.4c-9.3-5.679-5.016-7.567-4.959-7.609a2.987,2.987,0,0,1,3.631,1.774h0a2.979,2.979,0,0,1,2.49-3.174c.067,0,4.751-.161-1.151,9" transform="translate(-3.958 -19.98)"/>
      <rect id="Rectangle_429" data-name="Rectangle 429" class="cls-2" width="76.043" height="134.813" rx="11.74" transform="matrix(0.96, 0.28, -0.28, 0.96, 82.876, 35.805)"/>
      <path id="Tracé_1371" data-name="Tracé 1371" class="cls-2" d="M152.9,59.392s-2.287-.7-2.344-.685a1.826,1.826,0,0,0,1.763-1.867c-.778.856-3.791-.384-2.386-2.438s5.337-3.112,5.337-3.112,2.744,3.013,2.822,5.5-3.112,1.909-3.325.773a1.815,1.815,0,0,0,.477,2.521C155.218,60.035,152.9,59.392,152.9,59.392Z" transform="translate(-71.564 -24.264)"/>
    </g>
  </g>
</svg>
