<svg xmlns="http://www.w3.org/2000/svg" width="680.517" height="466.315" viewBox="0 0 680.517 466.315">
  <g id="Flat-design_personnes_dehors" data-name="Flat-design_personnes dehors" transform="translate(-10475.083 -492)">
    <path id="Tracé_1070" data-name="Tracé 1070" d="M11.4,18.612H2.821a1.1,1.1,0,0,1-1.1-1L0,0H14.226L12.507,17.611a1.1,1.1,0,0,1-1.1,1Z" transform="translate(10756.943 758.389) rotate(-30)" fill="#6c63ff"/>
    <path id="Tracé_1071" data-name="Tracé 1071" d="M15.288,4.875H1.108A1.109,1.109,0,0,1,0,3.767V1.108A1.109,1.109,0,0,1,1.108,0h14.18A1.109,1.109,0,0,1,16.4,1.108V3.767A1.109,1.109,0,0,1,15.288,4.875Z" transform="translate(10754.674 756.629) rotate(-30)" fill="#3f3d56"/>
    <g id="undraw_Mobile_life_re_jtih" transform="translate(10475.083 492)">
      <circle id="Ellipse_344" data-name="Ellipse 344" cx="66.404" cy="66.404" r="66.404" transform="translate(112.515 180.898)" fill="#e6e6e6"/>
      <path id="Tracé_888" data-name="Tracé 888" d="M389.264,564.193,405.6,574.315V505.9L387.289,494.55a7.1,7.1,0,0,1-3.1-4.125h0a7.1,7.1,0,0,1,5.074.939L405.6,501.485V474.954a62.774,62.774,0,0,1,1.874-15.225,62.774,62.774,0,0,1,1.874,15.225v43.3l24.1-14.933a11.809,11.809,0,0,1,6.414-1.77,11.809,11.809,0,0,1-4.439,4.956l-26.072,16.156V685.841H405.6V578.725L387.289,567.38a7.1,7.1,0,0,1-3.1-4.125h0A7.1,7.1,0,0,1,389.264,564.193Z" transform="translate(-224.87 -219.925)" fill="#ccc"/>
      <circle id="Ellipse_345" data-name="Ellipse 345" cx="66.404" cy="66.404" r="66.404" transform="translate(0 186.535)" fill="#e6e6e6"/>
      <path id="Tracé_889" data-name="Tracé 889" d="M276.708,572.446l-16.334,10.122v-68.42L278.683,502.8a7.1,7.1,0,0,0,3.1-4.125h0a7.1,7.1,0,0,0-5.074.939l-16.334,10.122V483.207a62.774,62.774,0,0,0-1.874-15.225,62.774,62.774,0,0,0-1.874,15.225v43.3l-24.1-14.933a11.809,11.809,0,0,0-6.414-1.77,11.809,11.809,0,0,0,4.439,4.956l26.072,16.156V687.447h3.749V586.978l18.309-11.346a7.1,7.1,0,0,0,3.1-4.125h0a7.1,7.1,0,0,0-5.074.939Z" transform="translate(-192.364 -222.54)" fill="#ccc"/>
      <circle id="Ellipse_346" data-name="Ellipse 346" cx="114.331" cy="114.331" r="114.331" transform="translate(0.309 0)" fill="#e6e6e6"/>
      <path id="Tracé_890" data-name="Tracé 890" d="M349.335,437.029l-28.124,17.427v-117.8l31.523-19.534a12.228,12.228,0,0,0,5.336-7.1h0a12.228,12.228,0,0,0-8.735,1.617l-28.124,17.427v-45.68a108.084,108.084,0,0,0-3.227-26.214,108.08,108.08,0,0,0-3.227,26.214V357.94l-41.49-25.71a20.333,20.333,0,0,0-11.043-3.047,20.333,20.333,0,0,0,7.644,8.533l44.89,27.817V620.9h6.454V462.049l31.523-19.534a12.228,12.228,0,0,0,5.336-7.1h0A12.228,12.228,0,0,0,349.335,437.029Z" transform="translate(-203.805 -155.746)" fill="#ccc"/>
      <rect id="Rectangle_327" data-name="Rectangle 327" width="624.354" height="1.366" transform="translate(22.939 464.949)" fill="#3f3d56"/>
      <g id="Groupe_134" data-name="Groupe 134" transform="translate(542.518 169.74)">
        <ellipse id="Ellipse_348" data-name="Ellipse 348" cx="18.047" cy="17.925" rx="18.047" ry="17.925" transform="translate(66.222 11.41)" fill="#ffb8b8"/>
        <path id="Tracé_902" data-name="Tracé 902" d="M899.37,598.405a6.46,6.46,0,0,1,.443-9.939l2.461-21.711,13.7,3.716-6.672,19.541a6.493,6.493,0,0,1-1.214,8.581,6.6,6.6,0,0,1-8.722-.187Z" transform="translate(-862.381 -423.716)" fill="#ffb8b8"/>
        <path id="Tracé_903" data-name="Tracé 903" d="M739.37,648.515l-7.564-4.859,15.272-31.291,11.164,7.173Z" transform="translate(-712.673 -363.902)" fill="#ffb8b8"/>
        <path id="Tracé_904" data-name="Tracé 904" d="M0,10.974l28.256-.087L28.289,0,10.543.055A10.573,10.573,0,0,0,0,10.568v.406Z" transform="matrix(0.84, 0.543, -0.543, 0.84, 5.96, 268.141)" fill="#2f2e41"/>
        <path id="Tracé_905" data-name="Tracé 905" d="M675.146,653.93h-9.008l-4.287-34.512h13.3Z" transform="translate(-580.842 -366.137)" fill="#ffb8b8"/>
        <path id="Tracé_906" data-name="Tracé 906" d="M0,10.865H28.312V0H10.53A10.494,10.494,0,0,0,0,10.459v.406Z" transform="translate(67.893 285.237)" fill="#2f2e41"/>
        <path id="Tracé_907" data-name="Tracé 907" d="M910.562,452.418c1.2,3.875-3.048,8.092-4.419,11.9s-3.215,7.472-3.957,11.457c-.507,2.74-12,63.261-11.446,66.946a14.387,14.387,0,0,1,10.633.969,31.238,31.238,0,0,0,4.04-13.057,67.834,67.834,0,0,0-.078-8.175c-.357-7.7,3-15.409,3.115-23.114a43.256,43.256,0,0,1,.635-7.97c.368-1.81.334-5.2.73-7,.63-2.867-2.078-4.19-1.928-7.129l.825-16.052C908.884,458.379,911.726,454.931,910.562,452.418Z" transform="translate(-852.725 -387.49)" fill="#2f2e41"/>
        <path id="Tracé_908" data-name="Tracé 908" d="M890.262,546.688c2.9,4.488,8.994,5.459,13.259,8.674,6.517,4.941-10.109,115.953-15.6,135.674-14.482-2.158-14.989-2.15-16.655-2.877s-3.172-57.113-6.691-68.736c-6.586,6.165-27.314,59.148-31.687,70.893-17.379-4.315,0,0-22.448-5.754.188-4.071,33.172-136.717,34.374-147.167C859.908,540.38,875.215,543.71,890.262,546.688Z" transform="translate(-791.99 -414.414)" fill="#2f2e41"/>
        <path id="Tracé_909" data-name="Tracé 909" d="M872.4,428.967c1.789,5.264-.646,25.743-.825,30.348a102.553,102.553,0,0,0,0,12.553c.619,7.24,2.786,14.529,1.332,21.647-.953,4.71-2.647,9.088-3.043,13.882-.267,3.321-.184,6.7-1.243,9.847-3.9-1.661-38.485-7.368-41.026-10.688,1.739-8.341.056-16.954,1.209-25.395.669-4.865,2.324-9.548,3.1-14.391.964-5.978.557-12.177,2.313-17.983a51.578,51.578,0,0,1,3.695-8.507c1.511-3.094,3.406-5.636,4.055-5.635C843.614,434.735,872.294,428.5,872.4,428.967Z" transform="translate(-771.592 -380.052)" fill="#f20893"/>
        <path id="Tracé_910" data-name="Tracé 910" d="M811.788,554.322s-6-11.884-6.3-18.681c-.106-2.441-6.838-12.155-9.869-14.358-7.189-5.231-12.488-40.289-10.059-48.8,4.2-14.706,11.279-28.417,18.462-41.933a3.059,3.059,0,0,1,1-1.268c1.46-.9,3.043.875,4.04,2.264,3.383,4.71,8.955,7.229,14.06,10.013s10.326,6.493,11.87,12.066c1.036,3.742.228,7.71-.557,11.5s-3.533,6.8-5.612,10c-2.409,3.525-8.668,19.156-8.621,21.011-.123,11.469-.24,22.976,1.159,34.367.786,6.437,1.477,19.372,1.477,19.372Z" transform="translate(-703.985 -380.083)" fill="#2f2e41"/>
        <path id="Tracé_911" data-name="Tracé 911" d="M877.069,544.44c11.039-24.957,10.421-53.357,17.437-79.7,2.084-7.821,4.87-15.681,4.369-23.756-.089-1.445-.4-3.066-1.61-3.874a3.974,3.974,0,0,0-3.739,0c-1.187.526-2.2,1.384-3.344,1.97-1.845.935-3.99,1.2-5.762,2.258-2.63,1.572-3.973,4.561-5.149,7.373-2.513,6.005-5.015,12.177-5.216,18.686-.423,12.642,5.222,24.791,2.279,37.085a73.223,73.223,0,0,1-2.274,7.162,216.6,216.6,0,0,0-7.244,25.909C866.487,539.05,876.606,545.492,877.069,544.44Z" transform="translate(-824.295 -382.49)" fill="#2f2e41"/>
        <path id="Tracé_912" data-name="Tracé 912" d="M803.332,575.162a6.458,6.458,0,0,1,1.536-5.274,6.552,6.552,0,0,1,5.057-2.216l15.568-15.435,8.371,11.4L816.37,574.765a6.573,6.573,0,0,1-13.038.4Z" transform="translate(-714.939 -419.116)" fill="#ffb8b8"/>
        <path id="Tracé_913" data-name="Tracé 913" d="M816.486,509.691c-.256,2.319-19.869,26.777-30.527,34.76.619-3.149-7.735-13.422-10.437-15.027,6.754-6.328,20.866-21.006,21.332-21.808,1.527-2.928,0-6.426-1.332-9.454-4.2-9.625-6.174-20.546-3.483-30.692,1.014-3.808,2.786-7.622,6.013-9.963,1.41-1.018,3.316-1.716,4.882-.941a5.41,5.41,0,0,1,1.672,1.489C809.6,464.094,816.675,507.97,816.486,509.691Z" transform="translate(-678.491 -388.699)" fill="#2f2e41"/>
        <path id="Tracé_914" data-name="Tracé 914" d="M844.392,402.4c-1.054-4.441,4.273-14,3.219-18.436-.714-3.007-7.833-.963-9.495-3.575s-4.444-4.728-7.555-4.763c-3.575-.04-7.093,2.594-10.48,1.456-3.424-1.151-4.519-5.809-3-9.07s4.775-5.339,8-6.967c5.487-2.773,11.876-4.8,17.749-2.963,3.55,1.109,6.518,3.512,9.391,5.862,2.618,2.142,5.281,4.333,7.111,7.17,3.586,5.557,3.37,13.045.305,18.9s-8.648,10.155-14.8,12.65" transform="translate(-752.39 -357.378)" fill="#2f2e41"/>
      </g>
    </g>
    <g id="Group_6" data-name="Group 6" transform="translate(10812.74 665.703)">
      <path id="Path_111" data-name="Path 111" d="M527.648,667.757h-8.306l-3.953-32.035H527.65Z" transform="translate(-465.892 -382.932)" fill="#feb8b8"/>
      <path id="Path_112" data-name="Path 112" d="M494.234,697.819h26.1V687.734H504.179a9.945,9.945,0,0,0-9.945,9.945h0Z" transform="translate(-456.801 -405.282)" fill="#2f2e41"/>
      <path id="Path_113" data-name="Path 113" d="M531.766,588.2l5.729,6.014,25.921-19.234-8.455-8.875Z" transform="translate(-472.929 -353.018)" fill="#feb8b8"/>
      <path id="Path_114" data-name="Path 114" d="M538.259,611.413l-11.149-11.7-7.3,6.959,18.011,18.9.1-.1A9.947,9.947,0,0,0,538.259,611.413Z" transform="translate(-467.791 -367.46)" fill="#2f2e41"/>
      <path id="Path_115" data-name="Path 115" d="M429.622,380.856a6.813,6.813,0,0,1,3.259-9.923l32.609-83.107,12.711,7.611-36.224,79.726a6.849,6.849,0,0,1-12.355,5.693Z" transform="translate(-428.596 -233.438)" fill="#feb8b8"/>
      <path id="Path_116" data-name="Path 116" d="M606.571,393.968a6.812,6.812,0,0,1-6.118-8.469l-48.106-75.2,13.625-5.817,43.248,76.147a6.849,6.849,0,0,1-2.65,13.345Z" transform="translate(-481.773 -240.594)" fill="#feb8b8"/>
      <path id="Path_117" data-name="Path 117" d="M493.853,431.851l8.515,126.555,20.349-1.8,4.189-93.369,11.372,40.1,24.538,1.8-9.713-79.27Z" transform="translate(-456.638 -292.755)" fill="#2f2e41"/>
      <path id="Path_118" data-name="Path 118" d="M556.4,551.224l-3.593,5.985-25.134,17.356,17.955,9.576S580.344,564.99,577.352,559Z" transform="translate(-471.172 -346.623)" fill="#2f2e41"/>
      <path id="Path_119" data-name="Path 119" d="M462.607,313.841l7.084-19.96a35.64,35.64,0,0,1,18.439-20.341h0A51,51,0,0,1,518.06,271.9l2.578.64a49.822,49.822,0,0,1,18.893,9.125c4.365,3.441,8.292,7.8,8.642,12.485a.134.134,0,0,0,.009.029c1.209,5.3,1.807,32.83,1.807,32.83H539.323l1.687,37.107-.136-.269s-61.509,11.64-61.509,5.655V331.2L478.1,317.328Z" transform="translate(-443.211 -225.948)" fill="#6c63ff"/>
      <circle id="Ellipse_12" data-name="Ellipse 12" cx="17.045" cy="17.045" r="17.045" transform="translate(59.764 6.675)" fill="#feb8b8"/>
      <path id="Path_120" data-name="Path 120" d="M552.93,208.532l13.235.53c1.665-.005,3.483-.064,4.752-1.141,1.91-1.625,1.591-4.691.567-6.981-2.851-6.377-9.212-8.662-16.2-8.474s-14.3,2.555-18.064,8.44a27.429,27.429,0,0,0-3.361,20.156,21.975,21.975,0,0,1,17.969-12.529Z" transform="translate(-473.568 -192.456)" fill="#ffedba"/>
    </g>
    <path id="Path_5" data-name="Path 5" d="M297.121,678.307H177.673l-.027-.4c-.068-1.006-1.592-24.75,6.1-33.222a8.426,8.426,0,0,1,6.157-2.955c5.014-.143,8.166,1.736,10.708,3.243,4.791,2.842,7.955,4.72,19.463-9.5,12.466-15.407,25.916-18.723,33.648-16.88,5,1.192,8.439,4.557,9.447,9.236a40.9,40.9,0,0,1,.406,11.938c-.262,3.579-.468,6.405,1,7.687,1.23,1.069,3.676,1.166,7.707.306,8.2-1.749,19.64-.253,25.382,7.167,3.089,3.992,5.523,11.247-.426,23.146Zm-118.633-.868H296.583c4.433-8.994,4.572-16.592.4-21.986-5.268-6.806-16.319-8.6-24.514-6.849-4.38.935-6.989.78-8.458-.5-1.8-1.566-1.577-4.584-1.3-8.4a40.27,40.27,0,0,0-.389-11.692c-.935-4.339-4.142-7.464-8.8-8.574-7.485-1.786-20.563,1.487-32.772,16.58-11.979,14.806-15.588,12.666-20.581,9.7-2.573-1.526-5.495-3.257-10.241-3.122a7.589,7.589,0,0,0-5.539,2.671c-6.912,7.615-6.069,28.965-5.9,32.175Z" transform="translate(10767.452 279.933)" fill="#2f2e41"/>
    <g id="Groupe_135" data-name="Groupe 135" transform="translate(10664.263 702.704)">
      <path id="Tracé_961" data-name="Tracé 961" d="M327.293,537.7a6.87,6.87,0,0,1-5.943-8.7l-17.512-16.3,9.259-2.349,17.22,13.966a6.907,6.907,0,0,1-3.023,13.38Z" transform="translate(-290.313 -410.429)" fill="#ffb8b8"/>
      <path id="Tracé_962" data-name="Tracé 962" d="M184.4,551.27h8.376l3.984-32.305H184.4Z" transform="translate(-123.243 -303.513)" fill="#ffb8b8"/>
      <path id="Tracé_963" data-name="Tracé 963" d="M0,0H26.323V10.17H10.17A10.17,10.17,0,0,1,0,0H0Z" transform="translate(85.686 255.535) rotate(179.997)" fill="#2f2e41"/>
      <path id="Tracé_964" data-name="Tracé 964" d="M100.345,542.923l8.094,2.155L120.6,514.884l-11.945-3.179Z" transform="translate(-96.611 -301.212)" fill="#ffb8b8"/>
      <path id="Tracé_965" data-name="Tracé 965" d="M0,0H26.323V10.17H10.17A10.17,10.17,0,0,1,0,0H0Z" transform="matrix(-0.966, -0.257, 0.257, -0.966, 25.437, 255.536)" fill="#2f2e41"/>
      <path id="Tracé_966" data-name="Tracé 966" d="M356.874,648.778h-12.78a3.231,3.231,0,0,1-3.229-2.933l-7.759-80.567a2.56,2.56,0,0,0-5-.488L305.58,640.074a3.24,3.24,0,0,1-3.894,2.218L289.8,639.319a3.243,3.243,0,0,1-2.355-3.953c.194-.759,19.409-75.85,19.577-76.622,4.354-32.087,9.562-40.685,12.36-45.3.232-.382.444-.734.636-1.066.24-.416,1.716-4.539,2.653-7.217a3.272,3.272,0,0,1,1.664-2.034c11.758-6.013,25.514-1.851,29.451-.432a3.2,3.2,0,0,1,1.6,1.24c11.808,17.811,6.013,121.255,4.732,141.812A3.246,3.246,0,0,1,356.874,648.778Z" transform="translate(-285.086 -407.136)" fill="#2f2e41"/>
      <circle id="Ellipse_351" data-name="Ellipse 351" cx="16.779" cy="16.779" r="16.779" transform="translate(22.028 4.012)" fill="#ffb8b8"/>
      <path id="Tracé_967" data-name="Tracé 967" d="M328.937,485.109l-.121-.117c-.226-.219-22.582-22.121-19.689-42.373,1.237-8.662,8.246-14.2,20.268-16.007a18.537,18.537,0,0,1,20.495,13.063l11.887,40.638Z" transform="translate(-291.907 -383.832)" fill="#009fe3"/>
      <path id="Tracé_968" data-name="Tracé 968" d="M312.887,506.822l-15.93-15.829a8.974,8.974,0,0,1-2.377-8.465l7.712-31.37a7.074,7.074,0,1,1,13.655,3.684l-8.119,27.6,13.129,14.1Z" transform="translate(-287.3 -389.966)" fill="#009fe3"/>
      <path id="Tracé_969" data-name="Tracé 969" d="M431.987,451.492a6.87,6.87,0,0,1-10.168,2.752l-21.266,11.022.94-9.363,18.853-11.668a6.907,6.907,0,0,1,11.641,7.256Z" transform="translate(-320.956 -388.66)" fill="#ffb8b8"/>
      <path id="Tracé_970" data-name="Tracé 970" d="M401.119,455.29l-20.731,8.959a8.751,8.751,0,0,1-8.524-.914L345.5,444.445a7.074,7.074,0,1,1,8.5-11.309l22.6,17.791,17.967-6.951Z" transform="translate(-302.578 -385.487)" fill="#009fe3"/>
      <path id="Tracé_971" data-name="Tracé 971" d="M326.2,390.254c2.07-2.594,5.937-2.733,8.781-4.444,3.724-2.241,5.264-7.249,4.064-11.427a14.336,14.336,0,0,0-8.8-8.991,24.279,24.279,0,0,0-12.854-.824c-6.374,1.121-12.65,4.1-16.537,9.27s-4.877,12.752-1.354,18.181c1.619,2.5,4.119,4.555,4.765,7.458.849,3.812-1.825,7.488-4.689,10.142-3.263,3.024-7.007,5.556-9.866,8.965s-4.766,8.066-3.461,12.319c1.093,3.564,4.274,6.189,7.762,7.5s7.287,1.5,11.013,1.578c3.619.071,7.463-.017,10.511-1.968,3.264-2.089,5.006-6.052,5.135-9.924a23.5,23.5,0,0,0-2.9-11.132,42.8,42.8,0,0,1-2.923-6.272,8.792,8.792,0,0,1,.294-6.738,8.4,8.4,0,0,1,5.878-3.89c.124-.024.255-.046.392-.065a5.054,5.054,0,0,0,4.327-5.894C325.464,392.589,325.488,391.141,326.2,390.254Z" transform="translate(-284.607 -364.085)" fill="#b97482"/>
    </g>
    <path id="Tracé_1068" data-name="Tracé 1068" d="M11.037,0a1.072,1.072,0,0,1,1.045,1.1l-.091,3.68.185.017-.066,2.5-.18-.022L11.6,20.457a1.859,1.859,0,0,1-1.664,1.8l-8.383.883A1.407,1.407,0,0,1,0,21.648L1.275,2.874a1.741,1.741,0,0,1,1.47-1.6L10.837.014h0A1.073,1.073,0,0,1,11.037,0Z" transform="matrix(0.719, 0.695, -0.695, 0.719, 10944.344, 799.417)" fill="#3f3d56"/>
    <path id="Tracé_1069" data-name="Tracé 1069" d="M3.771,1.471,8.026.81a.352.352,0,0,0,.3-.31h0A.4.4,0,0,1,8.658.149l.9-.139a.846.846,0,0,1,.975.856l-.461,19.115a.966.966,0,0,1-.88.939l-8.377.745A.746.746,0,0,1,0,20.877l1.13-18.6A1.2,1.2,0,0,1,2.148,1.161l.945-.147A.6.6,0,0,0,3.771,1.471Z" transform="matrix(0.719, 0.695, -0.695, 0.719, 10944.567, 800.305)" fill="#fff"/>
    <path id="Path_395" data-name="Path 395" d="M1.878,4.208a.574.574,0,0,1-.345-.115l-.006,0-1.3-.995a.578.578,0,1,1,.7-.917l.842.646,1.99-2.6a.578.578,0,0,1,.81-.107h0L4.56.137,4.573.119a.578.578,0,0,1,.107.81L2.338,3.982a.578.578,0,0,1-.46.225Z" transform="matrix(0.719, 0.695, -0.695, 0.719, 10940.446, 808.701)" fill="#f20893"/>
  </g>
</svg>
