<svg xmlns="http://www.w3.org/2000/svg" width="67.635" height="160.158" viewBox="0 0 67.635 160.158">
  <g id="Flat-design_ballon2" transform="translate(0 8.153) rotate(-8)">
    <path id="Tracé_287" data-name="Tracé 287" d="M623.464,372.4c-2.589,3.626-5.279,7.5-5.505,11.938-.339,6.822,5.119,12.4,7.555,18.784a22.325,22.325,0,0,1-.749,17.462c-1.189,2.458-2.885,4.9-2.666,7.622a14.889,14.889,0,0,0,1.626,4.7,26.5,26.5,0,0,1-1.538,23.927" transform="translate(-593.184 -300.503)" fill="none" stroke="#535461" stroke-miterlimit="10" stroke-width="2"/>
    <path id="Tracé_295" data-name="Tracé 295" d="M449.009,281.914H441.95l1.237-4.234h4.234Z" transform="translate(-416.016 -207.985)" fill="#fe7062"/>
    <path id="Tracé_296" data-name="Tracé 296" d="M583.646,132c0,16.177-13.114,39.875-29.288,39.875S525.07,148.179,525.07,132a29.289,29.289,0,0,1,58.579,0Z" transform="translate(-525.07 -102.715)" fill="#fe7062"/>
    <path id="Tracé_297" data-name="Tracé 297" d="M444.025,274.453h-4.234l-2.471-1.413H446.5Z" transform="translate(-412.62 -204.582)" fill="#535461"/>
  </g>
</svg>
