<svg xmlns="http://www.w3.org/2000/svg" width="662.746" height="494.017" viewBox="0 0 662.746 494.017">
  <g id="Flat-design_femme_avec_des_posts" data-name="Flat-design_femme avec des posts" transform="translate(0 0)">
    <ellipse id="Ellipse_357" data-name="Ellipse 357" cx="56.717" cy="4.326" rx="56.717" ry="4.326" transform="translate(0 477.263)" fill="#e6e6e6"/>
    <ellipse id="Ellipse_358" data-name="Ellipse 358" cx="56.717" cy="4.326" rx="56.717" ry="4.326" transform="translate(122.346 485.365)" fill="#e6e6e6"/>
    <path id="Tracé_1155" data-name="Tracé 1155" d="M875.79,145.142h-286.2a6.3,6.3,0,0,0-6.295,6.295V630.672a6.3,6.3,0,0,0,6.295,6.295h286.2A6.281,6.281,0,0,0,882,631.654a5.415,5.415,0,0,0,.084-.982V151.437A6.3,6.3,0,0,0,875.79,145.142Zm3.777,485.53a3.777,3.777,0,0,1-3.776,3.777h-286.2a3.777,3.777,0,0,1-3.777-3.776V151.437a3.783,3.783,0,0,1,3.777-3.777h286.2a3.782,3.782,0,0,1,3.777,3.777Z" transform="translate(-265.457 -145.142)" fill="#e6e6e6"/>
    <path id="Tracé_1156" data-name="Tracé 1156" d="M618.444,188.772a2.521,2.521,0,0,0-2.518,2.518V295.362a2.521,2.521,0,0,0,2.518,2.518H859.321a2.521,2.521,0,0,0,2.518-2.518V191.29a2.521,2.521,0,0,0-2.518-2.518Z" transform="translate(-271.649 -153.421)" fill="#e6e6e6"/>
    <path id="Tracé_1157" data-name="Tracé 1157" d="M494.29,289.272a2.433,2.433,0,0,0-2.431,2.431v100.47a2.433,2.433,0,0,0,2.431,2.431H726.829a2.433,2.433,0,0,0,2.431-2.431V291.7a2.433,2.433,0,0,0-2.431-2.431Z" transform="translate(-248.106 -172.492)" fill="#ee299e"/>
    <path id="Tracé_1158" data-name="Tracé 1158" d="M325.914,575.171c.306,7.525-4.5,14.195-9,20.19-2.052,2.808-21.126,21.837-26.886,30.154-1.4,2.016-35.645,41.549-37.4,45.213a17.382,17.382,0,0,0-1.017,2.691,36.338,36.338,0,0,0-.981,11.035v2.619c.18,5.716.441,11.458,1.8,16.994.2.81.423,1.629.54,2.448a7.87,7.87,0,0,1-1.026-.8L233.328,691.9l-1.161-.864c-1.188-3.438-2.313-6.913-3.582-10.306-.756-2.016.054-4.321,1.386-6a33.954,33.954,0,0,1,4.753-4.339,27.915,27.915,0,0,0,3.51-4.465c12.845-18.7,49.02-85.781,51.658-99.283a30.879,30.879,0,0,1,10.531-.135l18.569,2.466c2.007.27,4.2.639,5.509,2.178A6.785,6.785,0,0,1,325.914,575.171Z" transform="translate(-198.092 -225.025)" fill="#efb7b9"/>
    <path id="Tracé_1159" data-name="Tracé 1159" d="M433.494,589.385a19.861,19.861,0,0,1-2.907,7.885c-1.908,2.907-23.826,59.282-30.64,82.559-1.251,4.276-.594,8.407-.729,9.838-.108,1.188-.207,2.376-.3,3.555-.126,1.467-.225,2.934-.333,4.393-.279,3.862-.522,7.921,1.107,11.431a34.417,34.417,0,0,1,2.025,3.97,7.855,7.855,0,0,1-1.746-1.224l-18.615-13.817a85.425,85.425,0,0,1-3.5-13.2c-.468-2.547-.693-5.473.9-7.426a3.511,3.511,0,0,1,.3-.342,8.189,8.189,0,0,1,1.728-1.242,14.4,14.4,0,0,0,1.656-1.062,6.242,6.242,0,0,0,1.062-1.062c1.53-1.89,2.079-4.546,2.538-7.039,1.8-10.207,17.048-72.838,16.76-74.386-.315-1.521-8.974-16.112-14.915-19.353a68,68,0,0,1,20.766-11.9,8.218,8.218,0,0,1,4.276-.729,7.083,7.083,0,0,1,2.214.9c4.077,2.286,7.2,5.887,10.189,9.487C429.786,576.036,434.241,582.408,433.494,589.385Z" transform="translate(-226.408 -223.901)" fill="#efb7b9"/>
    <path id="Tracé_1160" data-name="Tracé 1160" d="M409.495,543.607c-.576,5.444-15.871,10.261-35.212,13.258-4.995.774-17.267-29.456-22.618-28.945-6.434.614-5.985,31.906-12.348,32.074-21.662.572-35.661-1.648-40.186-8.07-2.448-.594-5.4-2-5.284-4.5.081-1.431,1.215-2.7,1.206-4.1,0-2.448,7.1-29.254,11.287-41.973,1.044-3.159,1.8-6.4,2.979-9.523,5.095-14.078,7.282-24.879,16.589-36.6a21.891,21.891,0,0,0,3.474-5.482,23.9,23.9,0,0,0,1.233-7.408l.513-8.812c13.8-.648,27.2-.387,40.7,2.529a2.763,2.763,0,0,1,2.844,2.68v.02q.783,4.834,1.1,9.712a8.019,8.019,0,0,0,.306,2.124,8.812,8.812,0,0,0,1.458,2.4c7.813,10.243,12.6,22.5,16.382,34.781s6.787,24.9,11.54,36.9c1.638,4.141,3.781,8.794,4.213,13.232C411.385,539.178,411.007,542.049,409.495,543.607Z" transform="translate(-210.531 -199.809)" fill="#2f2e41"/>
    <path id="Tracé_1161" data-name="Tracé 1161" d="M447.584,376.845c2.376-2.007,4.753-4.024,6.931-6.238a95.011,95.011,0,0,0,8.5-10.387c2.754-3.754,5.491-7.6,7.2-11.936,1.935-4.969,2.529-10.621,5.9-14.744a3.375,3.375,0,0,1,1.521-1.188c1.917-.6,3.348,1.8,3.718,3.79,1.8,9.739-2.493,19.461-6.67,28.444-1.377,2.961-2.817,6-5.2,8.245a48.775,48.775,0,0,1-4.1,3.141,42.875,42.875,0,0,0-5.8,5.707q-4.5,5.113-8.56,10.594c-3.357,4.5-6.508,9.217-10.486,13.187s-8.956,7.2-14.528,7.984c1.593-.216,1.071-9.568.9-10.747-.243-1.71-1.413-3.727-1.449-5.4-.045-2.052.792-2.349,2.484-3.789Z" transform="translate(-235.505 -180.649)" fill="#efb7b9"/>
    <path id="Tracé_1162" data-name="Tracé 1162" d="M367.417,314.588s-5.4,27-11.7,31.5,34.2,9.9,34.2,9.9.9-21.6,11.7-31.5S367.417,314.588,367.417,314.588Z" transform="translate(-222.145 -177.296)" fill="#efb7b9"/>
    <path id="Tracé_1163" data-name="Tracé 1163" d="M401.467,428.544a12.061,12.061,0,0,0,4.132.54,32.4,32.4,0,0,0,13.646-3.177,2.511,2.511,0,0,0,1.026-.738,2.754,2.754,0,0,0,.045-2.205c-2.538-10.261,2.358-21.9-2.5-31.279-5.284,1.719-11.08,3.6-16.364,5.275a5.986,5.986,0,0,1-2.556.432,5.4,5.4,0,0,1-2.754-1.5c-5.725-4.951-9.334-11.846-12.6-18.659s-6.472-13.844-11.62-19.388-9.964-8.479-17.489-7.678a11.288,11.288,0,0,0-6.913,3.691c-4.249,4.573-5.095,11.531-3.6,17.6s4.924,11.441,8.488,16.562c4.645,6.679,9.64,13.259,16.094,18.218a121.308,121.308,0,0,0,10.855,7.012" transform="translate(-219.902 -184.021)" fill="#e6e6e6"/>
    <circle id="Ellipse_359" data-name="Ellipse 359" cx="27.004" cy="27.004" r="27.004" transform="translate(139.421 103.538)" fill="#efb7b9"/>
    <path id="Tracé_1164" data-name="Tracé 1164" d="M395.288,391.2c-8.118,9.573-9.833,21.8-11.494,33.871-8.155-2.763-17.192,1.872-25.635.18a32.453,32.453,0,0,0-13.178-1.529c-3.123-.3-6.22-2.26-9.2-1.261-4.953,3.138-.13-16.3-.424-21.945C332.762,305.241,410.042,351.592,395.288,391.2Z" transform="translate(-218.062 -182.947)" fill="#e6e6e6"/>
    <path id="Tracé_1165" data-name="Tracé 1165" d="M460.915,381.289c2.376-2.007,4.753-4.024,6.931-6.238a95.008,95.008,0,0,0,8.5-10.387c2.754-3.753,5.491-7.6,7.2-11.936,1.935-4.969,2.529-10.621,5.9-14.744a3.376,3.376,0,0,1,1.521-1.188c1.917-.6,3.348,1.8,3.717,3.79,1.8,9.739-2.493,19.461-6.67,28.444-1.377,2.961-2.817,6-5.2,8.245a48.79,48.79,0,0,1-4.1,3.141,42.871,42.871,0,0,0-5.8,5.707q-4.5,5.113-8.56,10.594c-3.357,4.5-6.508,9.217-10.486,13.187s-8.956,7.2-14.528,7.984c1.593-.216,1.071-9.568.9-10.747-.243-1.71-1.413-3.727-1.449-5.4-.045-2.052.792-2.349,2.484-3.789Z" transform="translate(-238.035 -181.492)" fill="#efb7b9"/>
    <path id="Tracé_1166" data-name="Tracé 1166" d="M395.9,394.863l-.063.117c-1.557,2.889-3.889,5.32-5.491,8.2a36.232,36.232,0,0,0-3.357,10.639q-.747,3.69-1.377,7.39a99.268,99.268,0,0,1-9.361-6.094c-6.454-4.96-11.45-11.54-16.094-18.227-3.6-5.122-7.021-10.5-8.488-16.553s-.612-13.025,3.6-17.6a11.306,11.306,0,0,1,6.913-3.7c7.525-.8,12.278,2.106,17.426,7.642s8.335,12.6,11.62,19.389C392.69,389.012,394.185,392.028,395.9,394.863Z" transform="translate(-221.378 -185.706)" opacity="0.1"/>
    <path id="Tracé_1167" data-name="Tracé 1167" d="M367.758,354.606a11.287,11.287,0,0,0-6.913,3.69c-4.249,4.573-5.095,11.531-3.6,17.6s4.924,11.441,8.488,16.562c4.645,6.679,9.64,13.259,16.094,18.218a121.325,121.325,0,0,0,10.855,7.012c6.215,3.828,12.189,2.636,17.885,7.2a15.032,15.032,0,0,0,4.231,2.7,12.062,12.062,0,0,0,4.132.54c4.726-.051,9.383-2.936,13.646-4.978a2.511,2.511,0,0,0,1.026-.738,2.754,2.754,0,0,0,.045-2.205c-2.538-10.261,2.358-14.7-2.5-24.078-5.284,1.719-11.08,3.6-16.364,5.275a5.986,5.986,0,0,1-2.556.432,5.4,5.4,0,0,1-2.754-1.5c-5.725-4.951-9.334-11.846-12.6-18.659s-6.472-13.844-11.621-19.389S375.282,353.805,367.758,354.606Z" transform="translate(-222.432 -184.865)" fill="#e6e6e6"/>
    <path id="Tracé_1168" data-name="Tracé 1168" d="M407.5,739.9a8,8,0,0,1-9.415,1.476,7.858,7.858,0,0,1-1.746-1.224l-18.615-13.817-7.381-5.482a7.813,7.813,0,0,1-.117-11.332l4.9-3.817,2.025-1.584,2.718-2.124,2.376-1.854,15.248,8.551.261.5,11.54,22.251A8.022,8.022,0,0,1,407.5,739.9Z" transform="translate(-224.574 -250.457)" fill="#2f2e41"/>
    <path id="Tracé_1169" data-name="Tracé 1169" d="M259.749,731.009a8,8,0,0,1-9.415,1.476c-.243-.126-.486-.27-.72-.423a7.872,7.872,0,0,1-1.026-.8l-18.614-13.817-1.161-.864-6.22-4.618a7.813,7.813,0,0,1-.117-11.333l4.9-3.816,2.025-1.584,2.718-2.124,2.376-1.854.387.216,13.376,7.5,1.485.837.261.5,11.54,22.251a8.022,8.022,0,0,1-1.791,8.452Z" transform="translate(-196.537 -248.771)" fill="#2f2e41"/>
    <path id="Tracé_1170" data-name="Tracé 1170" d="M409.946,274.509C399.49,262.662,387.7,257,373.565,262.2c-22.68-7.613-52.493,44.7-34.135,63.677l31.09,2.592,9.52-17.142-3.369,17.756,24.868,2.482C388.852,311.839,392.922,292.878,409.946,274.509Z" transform="translate(-218.097 -166.987)" fill="#2f2e41"/>
    <circle id="Ellipse_360" data-name="Ellipse 360" cx="23.595" cy="23.595" r="23.595" transform="translate(285.378 145.851)" fill="#fff"/>
    <path id="Path_40" data-name="Path 40" d="M637.433,350.4a2.759,2.759,0,1,0,0,5.518h74.5a2.759,2.759,0,1,0,.091-5.517H637.433Z" transform="translate(-275.206 -184.091)" fill="#fff"/>
    <path id="Path_40-2" data-name="Path 40" d="M637.433,330.67a2.759,2.759,0,1,0,0,5.518h37.2a2.759,2.759,0,1,0,.091-5.517H637.433Z" transform="translate(-275.206 -180.347)" fill="#fff"/>
    <path id="Path_40-3" data-name="Path 40" d="M637.433,371.064a2.759,2.759,0,1,0,0,5.518h74.5a2.759,2.759,0,0,0,.091-5.517H637.433Z" transform="translate(-275.206 -188.012)" fill="#fff"/>
    <circle id="Ellipse_361" data-name="Ellipse 361" cx="5.875" cy="5.875" r="5.875" transform="translate(378.936 249.37)" fill="#e6e6e6"/>
    <path id="Path_40-4" data-name="Path 40" d="M695.122,456.411a3.042,3.042,0,1,0,0,6.084H838.539a3.042,3.042,0,1,0,.1-6.084H695.122Z" transform="translate(-286.099 -204.208)" fill="#e6e6e6"/>
    <circle id="Ellipse_362" data-name="Ellipse 362" cx="5.875" cy="5.875" r="5.875" transform="translate(378.936 277.906)" fill="#e6e6e6"/>
    <path id="Path_40-5" data-name="Path 40" d="M695.122,491.63a3.042,3.042,0,1,0,0,6.085H838.539a3.042,3.042,0,1,0,.1-6.084H695.122Z" transform="translate(-286.099 -210.891)" fill="#e6e6e6"/>
    <circle id="Ellipse_363" data-name="Ellipse 363" cx="5.875" cy="5.875" r="5.875" transform="translate(378.936 306.442)" fill="#e6e6e6"/>
    <path id="Path_40-6" data-name="Path 40" d="M695.122,526.849a3.042,3.042,0,1,0,0,6.084H838.539a3.042,3.042,0,1,0,.1-6.084H695.122Z" transform="translate(-286.099 -217.574)" fill="#e6e6e6"/>
    <circle id="Ellipse_364" data-name="Ellipse 364" cx="5.875" cy="5.875" r="5.875" transform="translate(378.936 334.978)" fill="#e6e6e6"/>
    <path id="Path_40-7" data-name="Path 40" d="M695.122,562.068a3.042,3.042,0,1,0,0,6.084H838.539a3.042,3.042,0,0,0,.1-6.084H695.122Z" transform="translate(-286.099 -224.257)" fill="#e6e6e6"/>
    <circle id="Ellipse_365" data-name="Ellipse 365" cx="5.875" cy="5.875" r="5.875" transform="translate(378.936 363.514)" fill="#e6e6e6"/>
    <path id="Path_40-8" data-name="Path 40" d="M695.122,597.287a3.042,3.042,0,1,0,0,6.084H838.539a3.042,3.042,0,1,0,.1-6.084H695.122Z" transform="translate(-286.099 -230.94)" fill="#e6e6e6"/>
    <circle id="Ellipse_366" data-name="Ellipse 366" cx="5.875" cy="5.875" r="5.875" transform="translate(378.936 392.05)" fill="#e6e6e6"/>
    <path id="Path_40-9" data-name="Path 40" d="M695.122,632.506a3.042,3.042,0,1,0,0,6.084H838.539a3.042,3.042,0,1,0,.1-6.084H695.122Z" transform="translate(-286.099 -237.623)" fill="#e6e6e6"/>
    <circle id="Ellipse_367" data-name="Ellipse 367" cx="5.875" cy="5.875" r="5.875" transform="translate(378.936 420.586)" fill="#e6e6e6"/>
    <path id="Path_40-10" data-name="Path 40" d="M695.122,667.725a3.042,3.042,0,1,0,0,6.084H838.539a3.042,3.042,0,1,0,.1-6.084H695.122Z" transform="translate(-286.099 -244.306)" fill="#e6e6e6"/>
    <path id="Tracé_1171" data-name="Tracé 1171" d="M996.506,597.642c-.126,3.1-3.256,67.026-46.2,101.957q-2.694,2.19-5.6,4.222l-1.46-1.427h.848a3.777,3.777,0,0,0,3.777-3.776V572.605c.9-4.834,1.746-9.585,2.518-14.209,4.188-25.137,6.127-46.371,2.988-55.192,1.36,3.408,28.653,73.1,13.831,144.114C981.887,627.219,995.817,606.119,996.506,597.642Z" transform="translate(-333.76 -213.087)" fill="#e6e6e6"/>
  </g>
</svg>
