<svg xmlns="http://www.w3.org/2000/svg" width="676.303" height="550.954" viewBox="0 0 676.303 550.954">
  <g id="Flat-design_Homme_avec_enveloppe" data-name="Flat-design_Homme avec enveloppe" transform="translate(0 0)">
    <path id="Path_461" data-name="Path 461" d="M454.389,702.212a20.73,20.73,0,0,0,19.708,4.976c8.806-2.5,14.782-10.444,20.086-17.9l15.7-22.062-13.227,2.426c-9.512,1.744-19.26,3.575-27.544,8.566s-14.919,13.9-14.394,23.557" transform="translate(-256.156 -183.015)" fill="#e6e6e6"/>
    <path id="Path_462" data-name="Path 462" d="M441.594,732.845c2.32-7.909,4.653-15.927,8.748-23.136,3.638-6.4,8.607-12.019,15.165-15.511a33.867,33.867,0,0,1,11.151-3.628c1.017-.144,1.183,1.439.171,1.583a32.2,32.2,0,0,0-17.909,8.807c-5.416,5.3-8.969,12.132-11.6,19.164-1.591,4.252-2.874,8.608-4.151,12.963a.821.821,0,0,1-.909.666.8.8,0,0,1-.666-.909Z" transform="translate(-255.656 -183.927)" fill="#f2f2f2"/>
    <path id="Tracé_1083" data-name="Tracé 1083" d="M707.07,403.041a10.607,10.607,0,0,1,13.073,9.676l36.288,10.2-14.807,12.824-32.19-11.653a10.665,10.665,0,0,1-2.365-21.048Z" transform="translate(-265.713 -172.675)" fill="#ffb7b7"/>
    <path id="Tracé_1084" data-name="Tracé 1084" d="M555.722,559.634H545.144l-5.032-40.8h15.612Z" transform="translate(-21.115 -20.283)" fill="#ffb7b7"/>
    <path id="Tracé_1085" data-name="Tracé 1085" d="M805.867,734.721H771.762v-.431a13.275,13.275,0,0,1,13.274-13.275h20.833Z" transform="translate(-268.564 -185.118)" fill="#2f2e41"/>
    <path id="Tracé_1086" data-name="Tracé 1086" d="M620.224,559.634H609.646l-5.032-40.8h15.611Z" transform="translate(-23.637 -20.283)" fill="#ffb7b7"/>
    <path id="Tracé_1087" data-name="Tracé 1087" d="M870.37,734.721H836.264v-.431a13.276,13.276,0,0,1,13.274-13.275H870.37Z" transform="translate(-271.086 -185.118)" fill="#2f2e41"/>
    <path id="Tracé_1088" data-name="Tracé 1088" d="M546.729,317.378,531.148,425.3l3.882,113.708,23.4,1.863L565.744,438.9l18.624-56.861,10.949,81.054.45,75.917,24.16,1.863,8.426-159.607-6.2-69.412Z" transform="translate(-20.765 -12.192)" fill="#2f2e41"/>
    <circle id="Ellipse_352" data-name="Ellipse 352" cx="24.649" cy="24.649" r="24.649" transform="translate(546.38 111.395)" fill="#ffb7b7"/>
    <path id="Tracé_1089" data-name="Tracé 1089" d="M825.435,344.3,798.223,481.393s45.814,13.149,65.884,1.01,11.077-49.612,11.077-49.612l-3.676-63.764L864.716,352.9l-5.763-13.311Z" transform="translate(-269.598 -170.206)" fill="#cbcbcb"/>
    <path id="Tracé_1090" data-name="Tracé 1090" d="M816.439,441.7l9.4-99.97-7.518,5.488-26.285,8.536-1.8,70.382-18.387,92.555s13.143,25.645,29.43-16.782Z" transform="translate(-268.567 -170.29)" fill="#2f2e41"/>
    <path id="Tracé_1091" data-name="Tracé 1091" d="M554.908,203.534l-12.649-10.527-28.43,61.759L482.1,247.817l-1.5,18.737,45.966,18.191,31.324-43.608Z" transform="translate(-18.789 -7.545)" fill="#2f2e41"/>
    <path id="Tracé_1092" data-name="Tracé 1092" d="M609.144,256.367l3.543-81.362,13.038,10.1,23.284,6.49-3.414,64.776,4.913,100.511L626.1,364.609l-6.852-63.423Z" transform="translate(-23.814 -6.842)" fill="#2f2e41"/>
    <path id="Tracé_1093" data-name="Tracé 1093" d="M858.859,489.638a10.607,10.607,0,0,1,14.114-8.083l23.923-29.13,5.793,18.712L879.083,495.93a10.665,10.665,0,0,1-20.225-6.292Z" transform="translate(-271.962 -174.617)" fill="#ffb7b7"/>
    <path id="Tracé_1094" data-name="Tracé 1094" d="M634.194,201.3l15.589-9.032,39.225,77.461-38.243,53.1-21.812-17.44,26.486-34.54-24.14-37.1Z" transform="translate(-24.588 -7.516)" fill="#2f2e41"/>
    <path id="Tracé_1095" data-name="Tracé 1095" d="M864.451,283.828l1.195-2.405-6.013-2.987S853,267.643,841,270.676s-17.4,4.848-17.4,4.848l-6,3.018,3.01,2.995-5.4,1.815,3.608,1.792-4.2,2.413,2.26,12.368s3.753-9.381,10.968-5.8,20.413-1.853,20.413-1.853l11.466,22.19s2.365-7.779,6.583-5.7C866.307,308.763,877.082,291.6,864.451,283.828Z" transform="translate(-270.239 -167.491)" fill="#2f2e41"/>
    <path id="Tracé_1096" data-name="Tracé 1096" d="M692.628,322.019h-.158l-90.394,38.6L478.4,413.429a3.989,3.989,0,0,1-3.055.016l-127.6-52.937-92.614-38.425-.141-.063h-.158a5.518,5.518,0,0,0-5.512,5.512V566.9a5.518,5.518,0,0,0,5.512,5.512h437.8a5.518,5.518,0,0,0,5.512-5.512V327.531A5.518,5.518,0,0,0,692.628,322.019Z" transform="translate(-248.139 -169.519)" fill="#fff"/>
    <path id="Tracé_1097" data-name="Tracé 1097" d="M693.165,317.389a.785.785,0,0,1-.45-.141L474.952,165.592a3.949,3.949,0,0,0-4.511.008L254.248,317.247a.788.788,0,1,1-.9-1.29L469.538,164.311a5.529,5.529,0,0,1,6.315-.01L693.616,315.956a.788.788,0,0,1-.451,1.434Z" transform="translate(-248.284 -163.315)" fill="#3f3d56"/>
    <path id="Tracé_1098" data-name="Tracé 1098" d="M19.063,159.717,225.371,6.817,433.246,170.6,236,287.525,128.915,263.117Z" transform="translate(-0.745 -0.266)" fill="#e6e6e6"/>
    <path id="Tracé_1099" data-name="Tracé 1099" d="M386.542,537.035H284.621a4.762,4.762,0,1,1-.014-9.523H386.542a4.762,4.762,0,0,1,.014,9.523Z" transform="translate(-249.333 -177.553)" fill="#009fe3"/>
    <path id="Tracé_1100" data-name="Tracé 1100" d="M321.187,515.729H284.621a4.762,4.762,0,0,1-.014-9.523h36.581a4.762,4.762,0,1,1,.014,9.523h-.014Z" transform="translate(-249.333 -176.72)" fill="#009fe3"/>
    <path id="Tracé_1101" data-name="Tracé 1101" d="M479.608,408.767a5.955,5.955,0,0,1-2.259-.443L350.112,355.53V190.275a5.518,5.518,0,0,1,5.512-5.512H599.718a5.518,5.518,0,0,1,5.512,5.512V355.646l-.239.1L481.935,408.3a6,6,0,0,1-2.327.469Z" transform="translate(-252.08 -164.153)" fill="#009fe3"/>
    <path id="Tracé_1102" data-name="Tracé 1102" d="M691.4,322.019h-.158l-90.394,38.6L477.171,413.429a3.989,3.989,0,0,1-3.055.016l-127.6-52.937L253.9,322.082l-.141-.063H253.6a5.518,5.518,0,0,0-5.512,5.512V566.9a5.518,5.518,0,0,0,5.512,5.512H691.4a5.518,5.518,0,0,0,5.512-5.512V327.531a5.518,5.518,0,0,0-5.512-5.512ZM695.336,566.9a3.939,3.939,0,0,1-3.937,3.937H253.6a3.938,3.938,0,0,1-3.937-3.937V327.531a3.946,3.946,0,0,1,3.787-3.937l93.063,38.614L473.509,414.9a5.607,5.607,0,0,0,4.283-.024l123.055-52.551,90.71-38.732a3.95,3.95,0,0,1,3.779,3.937Z" transform="translate(-248.091 -169.519)" fill="#3f3d56"/>
    <path id="Tracé_1103" data-name="Tracé 1103" d="M460.482,248.536H373.867a6.3,6.3,0,0,1,0-12.6h86.614a6.3,6.3,0,1,1,0,12.6Z" transform="translate(-252.762 -166.154)" fill="#fff"/>
    <path id="Tracé_1104" data-name="Tracé 1104" d="M415.6,220.675H373.867a6.3,6.3,0,1,1,0-12.6H415.6a6.3,6.3,0,1,1,0,12.6Z" transform="translate(-252.762 -165.065)" fill="#fff"/>
    <path id="Tracé_1105" data-name="Tracé 1105" d="M544.639,314.091H412.355a6.3,6.3,0,1,1,0-12.6H544.639a6.3,6.3,0,0,1,0,12.6Z" transform="translate(-254.267 -168.717)" fill="#fff"/>
    <path id="Tracé_1106" data-name="Tracé 1106" d="M544.639,344.411H412.355a6.3,6.3,0,1,1,0-12.6H544.639a6.3,6.3,0,0,1,0,12.6Z" transform="translate(-254.267 -169.902)" fill="#fff"/>
    <path id="Tracé_1107" data-name="Tracé 1107" d="M940.588,736.237H687.87a.961.961,0,1,1,0-1.922H940.588a.961.961,0,1,1,0,1.922Z" transform="translate(-265.247 -185.638)" fill="#cbcbcb"/>
    <path id="Tracé_1108" data-name="Tracé 1108" d="M488.078,736.237H394.87a.961.961,0,1,1,0-1.922h93.208a.961.961,0,1,1,0,1.922Z" transform="translate(-253.792 -185.638)" fill="#cbcbcb"/>
    <path id="Path_461-2" data-name="Path 461" d="M430.27,702.8a20.73,20.73,0,0,0,17.482-10.369c4.481-7.982,3.116-17.829,1.616-26.859l-4.429-26.71L437.271,649.9c-5.515,7.944-11.135,16.116-13.489,25.5s-.776,20.376,6.405,26.853" transform="translate(-254.92 -181.906)" fill="#e6e6e6"/>
    <path id="Path_462-2" data-name="Path 462" d="M442.835,734.11c-3.933-7.244-7.932-14.574-10.112-22.573-1.935-7.1-2.372-14.591-.186-21.691a33.867,33.867,0,0,1,5.348-10.436c.62-.819,1.854.186,1.237,1a32.2,32.2,0,0,0-6.488,18.874c-.1,7.577,2.2,14.927,5.292,21.765,1.871,4.136,4.032,8.13,6.2,12.118a.821.821,0,0,1-.174,1.113.8.8,0,0,1-1.113-.175Z" transform="translate(-255.245 -183.479)" fill="#f2f2f2"/>
  </g>
</svg>
