<svg xmlns="http://www.w3.org/2000/svg" width="156.083" height="363.604" viewBox="0 0 156.083 363.604">
  <g id="Flat-design_ballon1" transform="translate(24.59) rotate(9)">
    <path id="Tracé_287" data-name="Tracé 287" d="M630.489,372.4c-5.883,8.24-12,17.044-12.512,27.132-.77,15.5,11.633,28.186,17.171,42.691a50.738,50.738,0,0,1-1.7,39.686c-2.7,5.586-6.556,11.136-6.059,17.322.285,3.775,2.175,7.21,3.7,10.682a60.226,60.226,0,0,1-3.5,54.379" transform="translate(-561.672 -209)" fill="none" stroke="#535461" stroke-miterlimit="10" stroke-width="2"/>
    <path id="Tracé_295" data-name="Tracé 295" d="M457.994,287.3H441.95l2.811-9.622h9.622Z" transform="translate(-383.009 -119.285)" fill="#91b3fa"/>
    <path id="Tracé_296" data-name="Tracé 296" d="M658.2,169.281c0,36.765-29.8,90.623-66.563,90.623s-66.563-53.864-66.563-90.623a66.566,66.566,0,0,1,133.132,0Z" transform="translate(-525.07 -102.715)" fill="#91b3fa"/>
    <path id="Tracé_297" data-name="Tracé 297" d="M452.558,276.251h-9.622l-5.617-3.211h20.855Z" transform="translate(-381.184 -117.456)" fill="#535461"/>
  </g>
</svg>
