<svg id="Calque_1" data-name="Calque 1" xmlns="http://www.w3.org/2000/svg" viewBox="0 0 50 68.35"><defs><style>.cls-1,.cls-4{fill:#1b9dd9;}.cls-1{opacity:0.75;isolation:isolate;}.cls-2{fill:#28285b;}.cls-3{fill:#e32d89;}</style></defs><path class="cls-1" d="M45.05,83.88a26.46,26.46,0,0,1-3.88.29c-4.85,0-8.76-1.53-11.67-4.59C24.91,74.76,24.92,68.14,25,66.35V21.94H36.26v45l0,.17a5.68,5.68,0,0,0,1.11,3.7c1,1,3.24,1.38,6.23.94Z" transform="translate(-25 -15.83)"/><ellipse class="cls-2" cx="19.3" cy="62.01" rx="5.61" ry="6.11"/><path class="cls-3" d="M25,21.94a5.88,5.88,0,0,1,5.61-6.11,5.86,5.86,0,0,1,5.61,6.1,5.87,5.87,0,0,1-5.6,6.12h0A5.89,5.89,0,0,1,25,21.94Z" transform="translate(-25 -15.83)"/><ellipse class="cls-4" cx="44.39" cy="61.63" rx="5.61" ry="6.11"/></svg>