<svg xmlns="http://www.w3.org/2000/svg" width="806.07" height="861.2" viewBox="0 0 806.07 861.2">
  <g id="SVG-page404" transform="translate(0.002)">
    <path id="Tracé_155" data-name="Tracé 155" d="M297.547,38.78l12.068,20.861,12.049,20.88H273.45L285.5,59.641Z" transform="translate(165.429 -22.949)"/>
    <path id="Tracé_154" data-name="Tracé 154" d="M854.408,466.086c0,235.142-170.844,425.775-381.577,425.775s-543.3-274.934-381.6-425.775c162.753-151.68,250.154-385.067,381.6-425.717C675.921-22.428,854.408,231,854.408,466.086Z" transform="translate(-48.34 -30.66)" fill="#f2f2f2"/>
    <circle id="Ellipse_217" data-name="Ellipse 217" cx="26.788" cy="26.788" r="26.788" transform="translate(131.757 475.568)" fill="#e32c88"/>
    <rect id="Rectangle_105" data-name="Rectangle 105" width="30.472" height="31.272" transform="translate(700.945 579.424)" fill="#1a9dd9"/>
    <path id="Tracé_1261" data-name="Tracé 1261" d="M204.34,277.261s29.381,54.823,117.23,25.559c-.234,1.326,84.886,17.7,114.5-25.559L390.508,141.373,250.9,139.17Z" transform="translate(99.801 72.382)" fill="#4b3214"/>
    <path id="Tracé_1262" data-name="Tracé 1262" d="M178,189.994l49.774-30.414h60.984l52.016,42.345,3.47,66.716L174.26,266.516Z" transform="translate(165.481 151.539)" fill="#fff"/>
    <path id="Tracé_1263" data-name="Tracé 1263" d="M234.215,304.16s62.8,16.4,177.707-1.15c.273.429,25.657,12.984,25.657,12.984l-108.515,51.1L229.5,339.214l-22.557-26.2Z" transform="translate(102.27 227.966)" fill="#147597"/>
    <path id="Tracé_1264" data-name="Tracé 1264" d="M245.227,362s-14.135,1.774-12.458,3.529c-.487,0-11.464,4.367-11.464,4.367s-24.838,3.373-28.386,6.258c.1.721-16.981,9.241-17.839,18.17a51.8,51.8,0,0,0,10.43,18.56c.273.214,12.419-.585,14.953-1.95l55.993-21.212S245.87,375.647,245.227,362Z" transform="translate(72.016 283.983)" fill="#adddf2"/>
    <path id="Tracé_1265" data-name="Tracé 1265" d="M322.191,362s14.154,1.774,12.458,3.529c.487,0,11.464,4.367,11.464,4.367s24.838,3.373,28.406,6.258c-.1.721,16.981,9.241,17.819,18.17a51.332,51.332,0,0,1-10.411,18.56c-.273.214-12.438-.585-14.973-1.95L311,389.8S321.567,375.647,322.191,362Z" transform="translate(201.086 283.983)" fill="#adddf2"/>
    <rect id="Rectangle_374" data-name="Rectangle 374" width="17.585" height="31.935" rx="1.13" transform="translate(398.029 362.528) rotate(-10.36)" fill="#fff" stroke="#000" stroke-miterlimit="10" stroke-width="0.1"/>
    <rect id="Rectangle_375" data-name="Rectangle 375" width="13.686" height="27.47" rx="1.13" transform="translate(400.275 364.489) rotate(-10.36)" fill="#e62c2a"/>
    <rect id="Rectangle_376" data-name="Rectangle 376" width="17.585" height="31.935" rx="1.13" transform="translate(413.345 359.718) rotate(-3)" fill="#fff" stroke="#000" stroke-miterlimit="10" stroke-width="0.1"/>
    <rect id="Rectangle_377" data-name="Rectangle 377" width="13.686" height="27.47" rx="1.13" transform="translate(415.318 361.976) rotate(-3)" fill="#e62c2a"/>
    <rect id="Rectangle_378" data-name="Rectangle 378" width="17.585" height="31.935" rx="1.13" transform="translate(428.247 359.423) rotate(6.21)" fill="#fff" stroke="#000" stroke-miterlimit="10" stroke-width="0.1"/>
    <rect id="Rectangle_379" data-name="Rectangle 379" width="13.686" height="27.47" rx="1.13" transform="translate(429.855 361.949) rotate(6.21)" fill="#e62c2a"/>
    <path id="Tracé_1266" data-name="Tracé 1266" d="M251.542,242.328,260.179,235s-.117,3.665,0,3.782c.916.546,4.7-3.548,4.7-3.548s12.361-11.7,12.672-11.561c2.651.117,1.111,2.671,1.111,2.671s-10.411,11.444-10.723,11.542c.6,1.443,1.131,1.014,1.131,1.014l12.146-11.347h1.443c2.651.331.409,3.1.409,3.1l-11.854,11.912S283.379,232,283.672,231.547c2.359-1.95,2.456-.1,2.768,0,.819,2.34-14.115,15.6-14.31,15.889,9.4-7.331,8.89-4.094,8.988-4.094-2.963,6.122-14.856,16.065-14.856,16.065l-5.673,6L249.3,248.626Z" transform="translate(142.496 152.623)" fill="#fef8c6"/>
    <path id="Tracé_1267" data-name="Tracé 1267" d="M296.938,241.943l-8.676-7.35s.1,3.685,0,3.782c-.936.565-4.737-3.568-4.737-3.568s-12.439-11.7-12.75-11.7c-2.671.1-1.131,2.671-1.131,2.671s10.489,11.5,10.8,11.7c-.624,1.443-1.131.994-1.131.994L267.07,227.087h-1.443c-2.671.331-.409,3.1-.409,3.1l11.932,11.971s-12.244-10.606-12.555-11.054c-2.359-1.95-2.457-.1-2.768,0-.819,2.359,14.193,15.753,14.388,15.967-9.456-7.37-8.949-4.133-9.046-4.114C270.151,249.1,282.16,259.1,282.16,259.1l3.217,2.418,12.887-13.979Z" transform="translate(154.36 152.092)" fill="#fef8c6"/>
    <path id="Tracé_1268" data-name="Tracé 1268" d="M256.393,187.38s-6.492,1.053-7.233,4.8c.156,0-1.17,1.657,1.579,4.816a65.507,65.507,0,0,0,26.963,11.6,38.527,38.527,0,0,0,8.949,0c-.156,0,14.349-1.735,20.744-7.292a64.343,64.343,0,0,0,5.849-4.231s1.95-2.983,0-5.147a9.163,9.163,0,0,0-6.141-4.543" transform="translate(142.187 118.163)" fill="#e22e89"/>
    <path id="Tracé_1269" data-name="Tracé 1269" d="M302.448,175.1s-1.5,22.888,4.621,31.194c-.214-.175-26.846,22.011-54.764,0-.624,0,5.069-22.031,0-29.654" transform="translate(145.302 106.502)" fill="#e1d7ad"/>
    <ellipse id="Ellipse_379" data-name="Ellipse 379" cx="66.462" cy="76.912" rx="66.462" ry="76.912" transform="translate(353.427 136.902)" fill="#fef8c6"/>
    <ellipse id="Ellipse_380" data-name="Ellipse 380" cx="9.456" cy="11.444" rx="9.456" ry="11.444" transform="translate(410.434 247.21)" fill="#fff"/>
    <path id="Tracé_1270" data-name="Tracé 1270" d="M275.536,108.355s34.177,57.591,70.186,41.176c0,2.262-7.175,5.849-7.175,5.849s-4.718,23.551,7.175,34.313c.409.565,0,28.425,0,28.425s-10.255,38.388,21.309,79.739l32.071,16.4s17.547-45.309-21.329-79.271c-1.638-2.846-23.785-56.071-15.6-84.944-1.638.565-8.208-30.667-49.618-44.49s-61.491,3.724-69.289,2.593" transform="translate(136.769 35.39)" fill="#684618"/>
    <path id="Tracé_1271" data-name="Tracé 1271" d="M329.83,108.355s-34.177,57.591-70.186,41.176c0,2.262,7.175,5.849,7.175,5.849s4.718,23.551-7.175,34.313c-.409.565,0,28.425,0,28.425s10.255,38.388-21.309,79.739l-32.071,16.4s-17.546-45.309,21.329-79.271c1.638-2.846,23.785-56.071,15.6-84.944,1.638.565,8.208-30.667,49.618-44.49s61.491,3.724,69.289,2.593" transform="translate(97.877 35.39)" fill="#684618"/>
    <path id="Tracé_1272" data-name="Tracé 1272" d="M241.938,246.253s-6.395,79.154-7.993,79.661a79.427,79.427,0,0,1,9.046-10.957c15.421-16.513,43.067-41.254,43.71-42.891-1.95,11.444,12.789,20.412,12.789,20.412s-53.965,66.287-54.472,67.2c-8.5,10.45-22.265,9.943-25.462-4.991s-4.991-43.3-5.6-44.042c-1.6-23.4,2.788-80.148,2.593-81.182a44.061,44.061,0,0,1,23.4-21.446c15.987.994,36.5-15.6,36.5-15.6l6.492-2.944" transform="translate(108.604 120.157)" fill="#e22e89"/>
    <path id="Tracé_1273" data-name="Tracé 1273" d="M331.868,245.569s6.59,79.154,8.247,79.661a79.931,79.931,0,0,0-9.319-10.957c-15.889-16.513-44.373-41.254-45.016-42.891,2.047,11.444-13.179,20.412-13.179,20.412s55.564,66.287,56.11,67.2c8.754,10.45,22.927,9.943,26.222-4.991s5.147-43.3,5.849-44.042c1.657-23.4-2.866-80.148-2.671-81.182a45.016,45.016,0,0,0-24.078-21.446c-16.455.994-37.588-15.6-37.588-15.6l-4.854-1.54" transform="translate(164.621 120.841)" fill="#e22e89"/>
    <path id="Tracé_1274" data-name="Tracé 1274" d="M370.908,276.82s.487,24.214,7.8,32.851c1.326,3.314-150.646,0-150.646,0s7.954-20,0-29.576" transform="translate(122.326 203.096)" fill="#e22e89"/>
    <path id="Tracé_1275" data-name="Tracé 1275" d="M305.32,293.67s11.288,13.94,15.265,21.894" transform="translate(195.693 219.097)" fill="#e22e89"/>
    <path id="Tracé_1276" data-name="Tracé 1276" d="M235.485,293.67S224.2,307.61,220.22,315.564" transform="translate(114.881 219.097)" fill="#e22e89"/>
    <path id="Tracé_1277" data-name="Tracé 1277" d="M244.328,313.107c10.937-5.849,160.16,81.63,160.16,81.63l11.269.234,14.875,5.732a23.4,23.4,0,0,1,16.923,4.445c2.729,37.9-24.8,48.389-24.8,48.389l-8.6-5.5-22.888-3.9s-4.094-8.013-4.718-9.748c-51.431-11.815-199.289-69.406-199.679-69.874-10.079-15.6-.7-47.336-1.579-47.492,6.648-4.582,40.766-11.113,46.927-10.08,4.309.721,14.525-.78,20.276-1.735,2.476-.409,4.114-.721,4.114-.721" transform="translate(78.744 229.371)" fill="#1174a1"/>
    <path id="Tracé_1278" data-name="Tracé 1278" d="M419.973,311.5c-11.249-5.849-165.717,82.546-165.717,82.546l-11.7.292-15.4,5.849a24.721,24.721,0,0,0-17.546,4.543C206.588,442.67,234.955,453,234.955,453l8.89-5.537,23.649-3.9s4.25-8.052,4.913-9.748c53.127-12.088,206.035-70.537,206.405-71,10.508-15.6.994-47.375,1.95-47.531-6.843-4.562-42.014-10.918-48.37-9.845S407.339,303,407.339,303" transform="translate(104.591 227.956)" fill="#1886ad"/>
  </g>
</svg>
