<svg xmlns="http://www.w3.org/2000/svg" width="153" height="152.997" viewBox="0 0 153 152.997">
  <g id="profile" transform="translate(0 -0.004)">
    <path id="Tracé_1110" data-name="Tracé 1110" d="M153,76.5A76.5,76.5,0,1,0,22.406,130.6c.044.044.089.086.133.13.026.027.053.052.08.078a76.5,76.5,0,0,0,107.761,0c.027-.026.055-.052.081-.079.044-.044.089-.086.133-.129A76,76,0,0,0,153,76.5ZM76.5,4.477A72.033,72.033,0,0,1,131.087,123.5v-1.048a19.751,19.751,0,0,0-16-19.368L103,100.76a3.986,3.986,0,0,0-.929-.793l-6.416-3.932c1.251-.668,1.564-.889,4.86-2.811A18.449,18.449,0,0,0,109.6,77.362c0-6.334-.007-23.259-.008-25.524A33.089,33.089,0,0,0,53.227,28.317,2.236,2.236,0,0,0,56.373,31.5a28.617,28.617,0,0,1,30.545-6.311A26.3,26.3,0,0,1,59.711,48.951a7.179,7.179,0,0,0-7.454,7.179v9.013c0,.011,0,.023,0,.034a24.109,24.109,0,0,0,7.22,16.9,24.458,24.458,0,0,0,3.113,2.592V92.82l-.725.444a68.494,68.494,0,0,1-7.118-3.9,13.961,13.961,0,0,1-6.872-12l.008-25.526a28.355,28.355,0,0,1,2.754-12.265,2.236,2.236,0,0,0-4.04-1.919,32.8,32.8,0,0,0-3.187,14.184L43.4,77.362a18.448,18.448,0,0,0,9.082,15.862c3.318,1.935,3.612,2.145,4.86,2.811l-6.416,3.932a3.992,3.992,0,0,0-.929.793l-12.091,2.327a19.751,19.751,0,0,0-16,19.368V123.5A72.032,72.032,0,0,1,76.5,4.477ZM49.567,105.4a4.021,4.021,0,0,0,.479.655l4.259,4.73-2.662,2.365a4.706,4.706,0,0,0-1.514,4.314c1.487,8.307,12.231,22.27,19.3,30.729a71.449,71.449,0,0,1-43.041-19.958v-5.777a15.273,15.273,0,0,1,12.369-14.977ZM59.539,53.42A30.759,30.759,0,0,0,87.057,38.636a46.345,46.345,0,0,0,8.494,12.659,2.69,2.69,0,0,1,.719,1.837V65.127a19.773,19.773,0,0,1-39.541,0v-9A2.707,2.707,0,0,1,59.539,53.42Zm45.575-1.76a7.7,7.7,0,0,0-3.271-.727h-1.451a7.137,7.137,0,0,0-1.563-2.681c-6.448-6.945-8.565-13.393-9.079-15.284a30.612,30.612,0,0,0,1.419-5.691A28.628,28.628,0,0,1,105.114,51.66Zm.01,25.7a13.959,13.959,0,0,1-6.872,12,68.366,68.366,0,0,1-7.118,3.9l-.725-.444V84.668a24.5,24.5,0,0,0,3.113-2.593,24.093,24.093,0,0,0,7.168-15.646h1.153a7.72,7.72,0,0,0,3.278-.724Zm-3.282-21.958a3.28,3.28,0,0,1,3.276,3.272v.006a3.274,3.274,0,0,1-3.276,3.274h-1.1V55.4h1.1ZM85.937,87.152c0,13.707.069,14.523-.208,18.305a17.14,17.14,0,0,1-18.459,0c-.278-3.789-.209-4.561-.208-18.305a24.319,24.319,0,0,0,18.875,0Zm-.772,23.664A192.125,192.125,0,0,1,76.5,146.263a192.117,192.117,0,0,1-8.666-35.448,21.658,21.658,0,0,0,17.331,0ZM62.589,98.066c.023,1.427-.1,4.113.305,8.827,1.074,12.541,4.741,26.218,7.725,35.737-13.5-16.559-15.728-23.94-16.089-25.957a.218.218,0,0,1,.082-.182l3.018-2.682a4,4,0,0,0,.316-5.665l-4.2-4.661Zm31.794,32.115a2.236,2.236,0,0,0-3.107.589c-2.832,4.157-6.039,8.312-8.883,11.817,2.981-9.513,6.638-23.171,7.711-35.694.4-4.728.283-7.41.305-8.827l8.839,5.417-4.2,4.662a4,4,0,0,0,.316,5.665l3.018,2.682a.22.22,0,0,1,.082.182,21.259,21.259,0,0,1-1.92,5.284,2.236,2.236,0,1,0,4.019,1.963,25.182,25.182,0,0,0,2.3-6.459,4.705,4.705,0,0,0-1.514-4.314l-2.662-2.365,4.259-4.73a4,4,0,0,0,.479-.655l10.813,2.081a15.272,15.272,0,0,1,12.369,14.977v5.777A71.451,71.451,0,0,1,83.573,148.19c3.37-4.036,7.691-9.458,11.4-14.9a2.236,2.236,0,0,0-.589-3.107Z"/>
  </g>
</svg>
