<svg id="profile" xmlns="http://www.w3.org/2000/svg" width="153" height="153" viewBox="0 0 153 153">
  <path id="Tracé_1109" data-name="Tracé 1109" d="M153,76.5a76.5,76.5,0,1,0-77.728,76.485c.719.032,2.281,0,2.311,0h.08A76.479,76.479,0,0,0,153,76.5ZM76.5,4.482a72.022,72.022,0,0,1,56.177,117.087A18.667,18.667,0,0,0,119.6,104.127l-14.5-4.591c-.821-.7-.6-.4-13.953-7.013V86.311A25.345,25.345,0,0,0,101.74,68.135a5.866,5.866,0,0,0,4.874-5.774V39.551a9.118,9.118,0,0,0-9.108-9.108h-.231a.078.078,0,0,1-.078-.078,9.118,9.118,0,0,0-9.108-9.108H64.423A18.066,18.066,0,0,0,46.378,39.3a2.241,2.241,0,0,0,4.482,0A13.579,13.579,0,0,1,64.423,25.739H88.088a4.631,4.631,0,0,1,4.626,4.626,4.566,4.566,0,0,0,4.56,4.56h.231a4.631,4.631,0,0,1,4.626,4.626V52.305h-2.5a2.54,2.54,0,0,1-2.537-2.537V47.153a7.281,7.281,0,0,0-9.572-6.918,35.364,35.364,0,0,1-22.047,0A7.281,7.281,0,0,0,55.9,47.152v2.616a2.54,2.54,0,0,1-2.537,2.537h-2.5V49.66a2.241,2.241,0,0,0-4.482,0v12.7a5.866,5.866,0,0,0,4.874,5.774,25.344,25.344,0,0,0,10.59,18.177v6.214c-13.321,6.6-13.145,6.323-13.951,7.013L33.4,104.128A18.667,18.667,0,0,0,20.323,121.57,72.022,72.022,0,0,1,76.5,4.482ZM50.8,116.866l1.742-1.739a5.855,5.855,0,0,0,1.07-6.851l-2.763-5.358,9.056-4.449a37.366,37.366,0,0,0-.468,12.613v.01c1.159,10.352,5.385,22.094,9.608,31.614-6.955-7-16.249-17.293-18.59-24.43a1.378,1.378,0,0,1,.343-1.41Zm.054-60.078h2.5a7.027,7.027,0,0,0,7.019-7.02V47.152a2.8,2.8,0,0,1,3.691-2.659,39.871,39.871,0,0,0,24.851,0,2.8,2.8,0,0,1,3.683,2.662v2.615a7.027,7.027,0,0,0,7.02,7.019h2.5v5.573a1.376,1.376,0,0,1-1.374,1.374,3.438,3.438,0,0,0-3.419,3.222,20.885,20.885,0,0,1-41.686,0,3.438,3.438,0,0,0-3.419-3.222,1.375,1.375,0,0,1-1.374-1.374V56.788ZM76.5,148.005c-1.454-2.917-3.418-7.073-5.383-11.9l3.68-14.475H78.2l3.678,14.47C79.914,140.938,77.948,145.1,76.5,148.005Zm-2.946-40.032-5.905,4.932a1.137,1.137,0,0,1-1.453.007l-2.369-2.929A29.869,29.869,0,0,1,64.7,97.993Zm-6.636,9.685a5.606,5.606,0,0,0,1.694-.267l2,2.525-2.257,8.877a104.8,104.8,0,0,1-3.315-11.465A5.607,5.607,0,0,0,66.915,117.658Zm11.909-.505H74.137l-1.824-2.3,4.43-3.7,4.007,3.426Zm6.609-4.474-5.517-4.717,8.406-9.886a29.89,29.89,0,0,1,.856,11.819l-2.29,2.807a1.137,1.137,0,0,1-1.456-.022ZM76.5,90.994a25.211,25.211,0,0,0,10.171-2.137V93.1l-9.942,11.692-10.4-11.724V88.857A25.207,25.207,0,0,0,76.5,90.994Zm8.151,37.792-2.264-8.908,2.036-2.724A5.5,5.5,0,0,0,88,117.128,104.038,104.038,0,0,1,84.647,128.786Zm-59.85-2.16v-4.631A14.206,14.206,0,0,1,34.752,108.4L46.7,104.618c.12.279,0,.01,2.933,5.713a1.387,1.387,0,0,1-.253,1.624l-1.742,1.739a5.837,5.837,0,0,0-1.436,5.98c2.861,8.72,14.115,20.8,21.838,28.352a71.463,71.463,0,0,1-43.244-21.4Zm60.157,21.4A170.226,170.226,0,0,0,98.7,133.055a2.241,2.241,0,0,0-3.508-2.79,155.953,155.953,0,0,1-11.259,12.461c4.236-9.545,8.477-21.326,9.626-31.71V111a37.285,37.285,0,0,0-.477-12.535l9.056,4.449-2.763,5.358a5.855,5.855,0,0,0,1.071,6.852l1.742,1.738a1.378,1.378,0,0,1,.343,1.41,22.337,22.337,0,0,1-1.588,3.573,2.241,2.241,0,1,0,3.944,2.13,26.751,26.751,0,0,0,1.9-4.307,5.838,5.838,0,0,0-1.436-5.98l-1.742-1.738a1.389,1.389,0,0,1-.254-1.624c2.915-5.661,2.816-5.438,2.934-5.714l11.953,3.784a14.206,14.206,0,0,1,9.955,13.594v4.631a71.46,71.46,0,0,1-43.249,21.4Z"/>
</svg>
